<svg width="18" height="18" viewBox="0 0 18 18" fill="none" xmlns="http://www.w3.org/2000/svg">
<path d="M12.2193 2.14105C11.5954 1.90106 10.9047 1.90106 10.2807 2.14105L7.16585 3.33805C6.91094 3.43599 6.69173 3.60894 6.53715 3.83405C6.38258 4.05917 6.2999 4.32587 6.30005 4.59895V5.58895C6.59887 5.5513 6.90123 5.5513 7.20005 5.58895V4.59895C7.19995 4.50799 7.22742 4.41914 7.27884 4.34411C7.33025 4.26908 7.40319 4.21139 7.48805 4.17865L10.6038 2.98075C11.0198 2.82076 11.4803 2.82076 11.8962 2.98075L15.0111 4.17865C15.096 4.21139 15.1689 4.26908 15.2204 4.34411C15.2718 4.41914 15.2992 4.50799 15.2991 4.59895V11.601C15.2992 11.6919 15.2718 11.7808 15.2204 11.8558C15.1689 11.9308 15.096 11.9885 15.0111 12.0212L12.5991 12.9482V13.401C12.5992 13.5817 12.5774 13.7618 12.5343 13.9374L15.3342 12.8609C15.589 12.7631 15.8081 12.5903 15.9627 12.3653C16.1173 12.1404 16.2 11.8739 16.2 11.601V4.59895C16.2 4.32603 16.1173 4.05952 15.9627 3.83458C15.8081 3.60964 15.589 3.43684 15.3342 3.33895L12.2193 2.14105ZM14.4819 4.76455C14.4391 4.65322 14.3537 4.56348 14.2447 4.51504C14.1357 4.4666 14.0119 4.46344 13.9005 4.50625L11.4111 5.46385C11.3072 5.50385 11.192 5.50385 11.088 5.46385L8.59865 4.50625C8.48806 4.46686 8.36646 4.47223 8.25979 4.52124C8.15312 4.57024 8.06981 4.65899 8.02766 4.76855C7.9855 4.87811 7.98783 4.99981 8.03414 5.10768C8.08045 5.21555 8.16708 5.30106 8.27555 5.34595L10.7649 6.30355C11.0769 6.42354 11.4223 6.42354 11.7342 6.30355L14.2236 5.34595C14.335 5.30307 14.4247 5.21774 14.4732 5.10872C14.5216 4.9997 14.5248 4.8759 14.4819 4.76455ZM9.98195 9.26455C9.93907 9.15322 9.85374 9.06348 9.74472 9.01504C9.6357 8.9666 9.5119 8.96344 9.40055 9.00625L6.75005 10.0259L4.09865 9.00625C3.98718 8.9634 3.86325 8.96659 3.75413 9.01512C3.64502 9.06364 3.55964 9.15353 3.5168 9.265C3.47395 9.37647 3.47714 9.50039 3.52567 9.60951C3.57419 9.71863 3.66408 9.804 3.77555 9.84685L6.30005 10.8161V13.0571C6.30005 13.1765 6.34746 13.291 6.43185 13.3753C6.51624 13.4597 6.6307 13.5071 6.75005 13.5071C6.8694 13.5071 6.98385 13.4597 7.06825 13.3753C7.15264 13.291 7.20005 13.1765 7.20005 13.0571V10.8161L9.72365 9.84505C9.83498 9.80217 9.92472 9.71684 9.97316 9.60782C10.0216 9.4988 10.0248 9.375 9.98195 9.26365V9.26455ZM7.71935 6.64195C7.09543 6.40196 6.40467 6.40196 5.78075 6.64195L2.66585 7.83895C2.41108 7.93684 2.19197 8.10965 2.03741 8.33458C1.88284 8.55952 1.80008 8.82603 1.80005 9.09895V13.401C1.80008 13.6739 1.88284 13.9404 2.03741 14.1653C2.19197 14.3903 2.41108 14.5631 2.66585 14.661L5.77985 15.8589C6.40403 16.0991 7.09516 16.0991 7.71935 15.8589L10.8342 14.661C11.0888 14.5629 11.3078 14.39 11.4622 14.1651C11.6166 13.9402 11.6992 13.6738 11.6991 13.401V9.09895C11.6992 8.82613 11.6166 8.5597 11.4622 8.33478C11.3078 8.10985 11.0888 7.93698 10.8342 7.83895L7.71935 6.64105V6.64195ZM6.10385 7.48165C6.51979 7.32166 6.9803 7.32166 7.39625 7.48165L10.5111 8.67955C10.596 8.71229 10.6689 8.76998 10.7204 8.84501C10.7718 8.92004 10.7992 9.00889 10.7991 9.09985V13.4018C10.7992 13.4928 10.7718 13.5817 10.7204 13.6567C10.6689 13.7317 10.596 13.7894 10.5111 13.8221L7.39625 15.0191C6.9803 15.1791 6.51979 15.1791 6.10385 15.0191L2.98895 13.8221C2.90378 13.7895 2.83055 13.7317 2.77895 13.6565C2.72736 13.5813 2.69984 13.4922 2.70005 13.401V9.09895C2.69995 9.00799 2.72742 8.91914 2.77884 8.84411C2.83025 8.76908 2.90319 8.71139 2.98805 8.67865L6.10385 7.48075V7.48165Z" fill="#C8C8C8"/>
</svg>
