<svg width="18" height="18" viewBox="0 0 18 18" fill="none" xmlns="http://www.w3.org/2000/svg">
<path d="M16.5 3.75C16.5 2.5095 15.4905 1.5 14.25 1.5H3.75C2.5095 1.5 1.5 2.5095 1.5 3.75V5.87325C1.5 6.663 1.7865 7.38075 2.25 7.93275V14.25C2.25 15.0773 2.92275 15.75 3.75 15.75H14.25C15.0773 15.75 15.75 15.0773 15.75 14.25V7.932C16.2135 7.38075 16.5 6.663 16.5 5.8725V3.75ZM15 3.75V5.87325C15 6.72825 14.3632 7.45725 13.5817 7.4985L13.5 7.5C12.6727 7.5 12 6.82725 12 6V3H14.25C14.664 3 15 3.33675 15 3.75ZM7.5 3H10.5V6C10.5 6.82725 9.82725 7.5 9 7.5C8.17275 7.5 7.5 6.82725 7.5 6V3ZM3 3.75C3 3.33675 3.336 3 3.75 3H6V6C6 6.82725 5.32725 7.5 4.5 7.5L4.41825 7.49775C3.63675 7.45725 3 6.72825 3 5.87325V3.75ZM7.5 14.25V12H10.5V14.25H7.5ZM12 14.25V12C12 11.1727 11.3273 10.5 10.5 10.5H7.5C6.67275 10.5 6 11.1727 6 12V14.25H3.75V8.90175C3.9405 8.952 4.13775 8.985 4.34025 8.9955C4.79242 9.02004 5.24425 8.94159 5.66168 8.76607C6.07911 8.59055 6.45124 8.32254 6.75 7.98225C7.29975 8.60625 8.10525 9 9 9C9.89475 9 10.7002 8.60625 11.25 7.98225C11.5488 8.32254 11.9209 8.59055 12.3383 8.76607C12.7557 8.94159 13.2076 9.02004 13.6597 8.9955C13.863 8.985 14.0595 8.952 14.25 8.90175V14.25H12Z" fill="#C8C8C8"/>
</svg>
